<?xml version="1.0" standalone="no"?>
<!DOCTYPE svg PUBLIC "-//W3C//DTD SVG 20010904//EN"
 "http://www.w3.org/TR/2001/REC-SVG-20010904/DTD/svg10.dtd">
<svg version="1.0" xmlns="http://www.w3.org/2000/svg"
 width="448.000000pt" height="448.000000pt" viewBox="0 0 448.000000 448.000000"
 preserveAspectRatio="xMidYMid meet">
<metadata>
Created by potrace 1.14, written by Peter Selinger 2001-2017
</metadata>
<g transform="translate(0.000000,448.000000) scale(0.100000,-0.100000)"
fill="#000000" stroke="none">
<path d="M2110 4254 c-103 -13 -225 -46 -286 -77 -120 -60 -222 -194 -239
-312 -12 -81 -19 -91 -62 -98 -53 -9 -104 -57 -147 -139 -82 -155 -93 -215
-61 -353 17 -73 36 -111 67 -133 10 -8 18 -25 18 -42 0 -16 13 -58 29 -92 28
-61 43 -112 62 -207 11 -53 2 -63 -51 -59 -33 3 -35 1 -41 -32 -5 -28 -7 -30
-8 -10 -2 14 -5 19 -8 12 -8 -20 7 -69 16 -53 5 8 14 -4 25 -33 17 -45 36 -61
36 -31 0 26 29 16 45 -15 8 -16 15 -35 15 -43 0 -8 9 -40 20 -73 12 -32 22
-63 23 -69 1 -5 6 -16 10 -22 12 -20 -7 -15 -37 8 -14 11 -26 16 -26 11 0 -21
84 -76 123 -82 40 -5 42 -8 86 -92 25 -49 56 -100 69 -115 13 -16 35 -44 50
-64 14 -20 36 -43 48 -50 85 -54 137 -104 159 -153 12 -28 39 -68 59 -88 20
-20 36 -41 36 -46 0 -9 -184 -22 -309 -22 -41 0 -95 -9 -146 -25 -44 -13 -124
-31 -177 -40 -79 -12 -106 -22 -148 -50 -29 -19 -56 -35 -61 -35 -11 0 -95
-58 -159 -109 -25 -19 -105 -93 -178 -163 -73 -71 -137 -128 -141 -128 -5 0
-13 24 -19 52 -11 51 -11 50 -7 -32 2 -47 1 -110 -4 -142 -4 -34 -2 -107 6
-190 8 -73 12 -148 9 -166 -3 -17 -1 -32 4 -32 17 0 37 65 44 143 4 42 10 77
12 77 16 0 85 -67 95 -94 7 -17 16 -33 19 -36 11 -9 25 -75 22 -102 -2 -16
-26 -48 -62 -85 -97 -96 -113 -107 -180 -118 -30 -5 -39 -10 -29 -16 9 -6 1
-7 -20 -3 -35 7 -62 -13 -38 -28 21 -14 -52 -9 -87 6 -55 23 -123 99 -117 133
1 6 -3 14 -9 18 -5 3 -10 16 -11 28 0 12 -9 40 -20 62 l-19 40 4 -77 c6 -110
42 -162 145 -210 83 -38 108 -42 161 -28 41 11 143 77 197 128 21 19 31 21 78
16 43 -5 60 -3 81 11 60 39 246 195 334 280 99 95 135 121 144 106 49 -78 112
-446 133 -768 l6 -103 809 0 808 0 0 101 0 101 27 -32 c23 -28 31 -32 64 -27
44 6 48 3 79 -76 12 -31 25 -59 29 -61 3 -2 20 1 36 5 27 7 30 12 29 43 -2 32
38 116 54 116 4 0 19 10 32 23 14 13 47 31 74 40 43 15 53 15 78 3 34 -17 35
-10 13 54 -15 42 -15 43 16 78 26 30 30 40 24 71 -6 36 -60 200 -108 336 -14
39 -33 99 -42 135 -28 116 -125 404 -148 442 -12 20 -35 58 -51 85 -41 69
-150 149 -251 184 -44 15 -150 39 -235 54 -85 14 -180 32 -211 40 -31 8 -84
15 -118 15 -51 0 -62 3 -71 21 -9 16 -8 25 2 37 27 34 47 80 54 123 9 57 14
66 110 176 30 34 98 172 114 233 7 25 15 67 19 95 6 46 8 50 39 56 42 9 126
99 92 99 -5 0 -10 -7 -10 -15 0 -8 -6 -15 -14 -15 -7 0 -19 -7 -26 -15 -7 -8
-21 -15 -32 -15 -14 0 -19 6 -16 23 2 17 9 22 29 20 25 -1 27 1 27 50 0 81 20
200 36 216 12 11 18 12 29 2 19 -15 24 -1 23 64 l-1 50 -47 -2 c-59 -3 -61 1
-52 154 8 134 8 328 1 517 -5 123 -7 133 -42 202 -19 40 -53 95 -75 122 -28
37 -36 52 -27 61 15 15 -31 61 -91 91 -26 12 -67 35 -92 51 -70 43 -188 91
-265 106 -75 14 -248 24 -305 17z m427 -654 c188 -14 212 -29 228 -140 2 -19
13 -65 23 -102 11 -38 17 -68 15 -68 -3 0 0 -6 6 -13 6 -8 13 -49 15 -93 2
-43 7 -93 11 -111 6 -26 3 -34 -14 -45 -12 -7 -21 -22 -21 -33 0 -11 -4 -15
-8 -10 -4 6 -33 23 -64 40 -32 16 -58 32 -58 35 0 14 -176 29 -225 20 -93 -18
-103 -26 -116 -89 -7 -31 -17 -62 -22 -69 -9 -11 -6 -85 8 -222 6 -60 19 -108
39 -146 27 -48 22 -68 -22 -94 -39 -24 -63 -25 -103 -5 -27 14 -29 19 -23 55
4 21 1 108 -6 192 -11 134 -16 160 -41 210 -16 32 -29 64 -29 71 0 29 -33 43
-110 47 -22 1 -21 3 10 13 44 15 52 49 17 71 -21 15 -34 15 -132 1 -76 -11
-121 -23 -150 -39 -51 -31 -109 -91 -101 -105 10 -16 21 -14 60 13 19 13 57
27 83 30 26 4 63 10 81 13 20 3 32 1 32 -6 0 -6 -11 -11 -24 -11 -14 0 -27 -4
-31 -9 -3 -5 -18 -12 -34 -16 -26 -6 -50 -25 -98 -80 -24 -27 -59 -54 -49 -37
4 6 3 12 -2 12 -15 0 -44 51 -44 76 0 13 -5 22 -11 21 -12 -2 -15 17 -18 143
-2 82 12 163 42 235 7 17 13 35 15 42 3 16 47 72 82 105 24 22 36 26 64 22 24
-4 60 2 114 21 75 26 83 27 159 16 80 -10 107 -6 196 33 9 4 28 8 43 10 14 1
29 6 33 9 3 4 15 5 27 2 12 -3 80 -9 153 -15z m41 -622 c-7 -19 -38 -22 -38
-4 0 10 9 16 21 16 12 0 19 -5 17 -12z m149 -20 c35 -25 39 -37 22 -70 -6 -11
-8 -22 -5 -25 8 -9 46 27 46 44 0 8 11 13 29 13 16 0 31 4 33 10 2 5 8 -2 15
-15 9 -21 9 -25 -5 -25 -14 0 -15 -2 -2 -10 19 -12 18 -118 -3 -230 -9 -47
-23 -123 -31 -170 -24 -132 -53 -250 -70 -284 -8 -17 -26 -56 -40 -88 -40 -88
-67 -115 -127 -123 -38 -5 -53 -12 -56 -26 -7 -27 -56 -24 -121 6 -30 14 -57
25 -62 25 -4 0 -23 -13 -41 -30 -19 -16 -51 -37 -73 -47 -36 -16 -39 -16 -47
0 -8 13 -24 17 -70 17 -56 0 -64 3 -95 34 -19 19 -34 31 -34 28 -1 -4 -10 10
-21 31 -11 21 -26 41 -34 44 -8 3 -13 8 -10 12 2 4 -9 22 -25 39 -15 17 -33
47 -40 67 -6 19 -16 35 -21 35 -5 0 -9 13 -9 29 0 16 -11 42 -23 58 -13 15
-36 55 -52 88 -15 33 -31 62 -35 65 -20 14 -72 237 -64 275 9 43 22 47 63 19
46 -31 58 -30 32 2 -28 36 -26 55 7 87 39 38 52 34 52 -13 0 -30 7 -48 31 -75
28 -31 37 -35 80 -35 46 0 50 2 75 40 22 33 25 47 20 80 -4 23 -2 40 3 40 17
0 41 -43 48 -82 3 -21 10 -38 15 -38 5 0 21 -11 35 -24 25 -23 26 -27 19 -102
-4 -43 -11 -85 -17 -95 -5 -10 -12 -42 -15 -72 -16 -141 121 -238 251 -178 62
28 125 112 125 165 0 41 -29 106 -58 131 -29 24 -62 109 -62 159 0 19 7 29 26
36 14 6 22 14 19 20 -3 5 1 10 9 10 12 0 16 10 16 39 0 44 8 71 21 71 5 0 9
-8 9 -17 0 -30 37 -81 70 -98 43 -22 84 -11 116 31 23 30 26 41 22 89 -5 64 5
69 59 33z m-789 -60 c-3 -7 -11 -13 -18 -13 -7 0 -15 6 -17 13 -3 7 4 12 17
12 13 0 20 -5 18 -12z"/>
<path d="M2471 3186 c-97 -13 -121 -26 -121 -68 0 -30 26 -32 159 -14 105 15
137 16 190 6 34 -6 65 -9 68 -6 22 21 -87 83 -158 90 -24 2 -86 -1 -138 -8z"/>
<path d="M2538 2310 c-66 -44 -181 -70 -311 -70 -73 0 -119 5 -144 15 -61 26
-68 17 -22 -27 24 -24 53 -56 63 -71 22 -32 64 -57 96 -57 15 0 22 -8 27 -30
7 -37 70 -75 106 -64 37 11 77 55 77 85 0 19 9 34 28 47 15 11 34 33 42 49 20
39 50 83 78 114 34 39 12 43 -40 9z m-74 -88 c-63 -34 -238 -55 -288 -36 -29
11 -17 24 22 24 44 0 264 28 270 35 3 2 9 2 15 -2 5 -3 -3 -13 -19 -21z"/>
<path d="M666 2835 c16 -65 24 -81 18 -35 -3 25 -10 50 -15 55 -7 7 -8 0 -3
-20z"/>
<path d="M572 2780 c9 -26 13 -30 16 -16 2 10 -3 26 -12 35 -15 15 -16 13 -4
-19z"/>
<path d="M517 2778 c-4 -15 -3 -38 3 -52 5 -15 7 -45 4 -69 -4 -28 -1 -52 10
-72 9 -16 16 -38 16 -48 0 -45 24 -109 46 -124 21 -13 25 -13 39 0 18 19 19
38 1 102 l-14 50 1 -70 c2 -53 -1 -70 -12 -70 -20 0 -48 103 -69 251 -13 93
-20 121 -25 102z"/>
<path d="M691 2702 c0 -29 3 -61 8 -71 8 -15 20 -102 25 -178 0 -13 5 -23 9
-23 5 0 15 -7 23 -15 18 -17 38 -20 28 -4 -8 14 -53 199 -54 222 0 11 -6 33
-14 50 -8 18 -17 41 -19 52 -3 11 -5 -4 -6 -33z"/>
<path d="M591 2685 c0 -11 7 -36 14 -55 l13 -35 1 30 c0 17 -6 41 -14 55 -13
22 -14 23 -14 5z"/>
<path d="M872 2610 c0 -19 2 -27 5 -17 2 9 2 25 0 35 -3 9 -5 1 -5 -18z"/>
<path d="M278 2601 c-2 -17 -2 -31 2 -31 7 0 10 -18 13 -80 2 -36 6 -46 22
-50 13 -4 26 -23 37 -55 9 -28 23 -51 32 -53 22 -5 20 12 -8 67 -13 25 -34 78
-46 116 -11 39 -27 81 -34 94 l-13 24 -5 -32z"/>
<path d="M440 2596 c0 -9 5 -16 10 -16 6 0 10 4 10 9 0 6 -4 13 -10 16 -5 3
-10 -1 -10 -9z"/>
<path d="M1400 2601 c0 -6 4 -13 10 -16 6 -3 7 1 4 9 -7 18 -14 21 -14 7z"/>
<path d="M212 2529 c6 -16 13 -28 15 -25 8 8 -6 56 -17 56 -5 0 -5 -13 2 -31z"/>
<path d="M451 2530 c0 -19 6 -64 12 -100 13 -63 13 -64 20 -30 5 23 1 57 -12
100 -17 56 -20 60 -20 30z"/>
<path d="M857 2473 c-3 -16 -9 -37 -13 -48 -5 -14 -4 -17 4 -10 11 10 28 85
19 85 -2 0 -7 -12 -10 -27z"/>
<path d="M958 2435 c-3 -38 -13 -108 -22 -155 -16 -84 -15 -110 2 -110 13 0
34 185 30 265 l-3 70 -7 -70z"/>
<path d="M230 2488 c0 -3 8 -23 17 -44 12 -28 18 -34 21 -22 2 10 -6 30 -17
44 -12 15 -21 24 -21 22z"/>
<path d="M1012 2227 c-26 -27 -28 -39 -7 -31 16 7 40 43 33 50 -3 2 -14 -6
-26 -19z"/>
<path d="M1115 2162 c-14 -9 -55 -68 -55 -77 0 -4 16 12 35 35 40 48 46 61 20
42z"/>
<path d="M1029 2047 c-9 -12 -27 -48 -42 -80 -14 -32 -33 -64 -41 -73 -8 -8
-32 -36 -53 -62 -37 -45 -72 -78 -83 -75 -14 3 -59 -40 -70 -67 -11 -26 -10
-34 6 -57 12 -19 19 -52 21 -103 2 -41 8 -115 12 -165 l8 -90 2 133 c1 125 3
138 32 205 16 40 38 81 49 92 10 11 29 43 44 71 14 29 39 73 56 98 26 38 85
185 77 192 -1 1 -9 -8 -18 -19z"/>
<path d="M431 1784 c-1 -9 73 -158 85 -173 2 -2 10 2 18 8 17 14 6 58 -13 54
-6 -2 -11 2 -11 8 0 6 -14 24 -31 42 -17 17 -35 40 -39 51 -5 12 -9 16 -9 10z"/>
<path d="M472 1285 c0 -16 2 -22 5 -12 2 9 2 23 0 30 -3 6 -5 -1 -5 -18z"/>
<path d="M462 1220 c0 -14 2 -19 5 -12 2 6 2 18 0 25 -3 6 -5 1 -5 -13z"/>
<path d="M794 525 c3 -28 16 -47 16 -22 0 8 3 22 6 31 4 10 1 16 -9 16 -11 0
-15 -8 -13 -25z"/>
<path d="M3846 180 c7 -37 23 -74 30 -68 2 2 -5 26 -16 54 -17 41 -19 44 -14
14z"/>
</g>
</svg>
